<mxfile host="app.diagrams.net" agent="Mozilla/5.0 (Windows NT 10.0; Win64; x64) AppleWebKit/537.36 (KHTML, like Gecko) Chrome/129.0.0.0 Safari/537.36" version="24.7.17">
  <diagram name="Страница — 1" id="fiFzarRcPJfgJuOxno2N">
    <mxGraphModel dx="1036" dy="551" grid="1" gridSize="10" guides="0" tooltips="1" connect="0" arrows="0" fold="1" page="1" pageScale="1" pageWidth="827" pageHeight="1169" math="0" shadow="0">
      <root>
        <mxCell id="0" />
        <mxCell id="1" parent="0" />
        <mxCell id="0yMn6RcTjmXR4WvA116v-39" value="" style="rounded=1;whiteSpace=wrap;html=1;rotation=90;" parent="1" vertex="1">
          <mxGeometry x="384" y="100" width="245.72" height="148.32" as="geometry" />
        </mxCell>
        <mxCell id="0yMn6RcTjmXR4WvA116v-1" value="" style="rounded=1;whiteSpace=wrap;html=1;rotation=90;" parent="1" vertex="1">
          <mxGeometry x="204" y="100" width="245.72" height="148.32" as="geometry" />
        </mxCell>
        <mxCell id="0yMn6RcTjmXR4WvA116v-2" value="Настройки" style="rounded=1;whiteSpace=wrap;html=1;arcSize=50;fillColor=default;strokeColor=none;" parent="1" vertex="1">
          <mxGeometry x="269.36" y="60" width="115" height="30" as="geometry" />
        </mxCell>
        <mxCell id="0yMn6RcTjmXR4WvA116v-3" value="Язык" style="rounded=1;whiteSpace=wrap;html=1;" parent="1" vertex="1">
          <mxGeometry x="276.86" y="120" width="95.17" height="30" as="geometry" />
        </mxCell>
        <mxCell id="0yMn6RcTjmXR4WvA116v-4" value="Валюта" style="rounded=1;whiteSpace=wrap;html=1;arcSize=0;" parent="1" vertex="1">
          <mxGeometry x="276.86" y="170" width="95" height="30" as="geometry" />
        </mxCell>
        <mxCell id="0yMn6RcTjmXR4WvA116v-8" value="" style="triangle;whiteSpace=wrap;html=1;" parent="1" vertex="1">
          <mxGeometry x="384.36" y="130" width="10" height="10" as="geometry" />
        </mxCell>
        <mxCell id="0yMn6RcTjmXR4WvA116v-10" value="" style="triangle;whiteSpace=wrap;html=1;" parent="1" vertex="1">
          <mxGeometry x="384.36" y="180" width="10" height="10" as="geometry" />
        </mxCell>
        <mxCell id="0yMn6RcTjmXR4WvA116v-17" value="" style="endArrow=none;html=1;rounded=0;entryX=0.817;entryY=0.007;entryDx=0;entryDy=0;entryPerimeter=0;" parent="1" target="0yMn6RcTjmXR4WvA116v-1" edge="1">
          <mxGeometry width="50" height="50" relative="1" as="geometry">
            <mxPoint x="252.03" y="252" as="sourcePoint" />
            <mxPoint x="392.03" y="250" as="targetPoint" />
          </mxGeometry>
        </mxCell>
        <mxCell id="0yMn6RcTjmXR4WvA116v-29" value="" style="html=1;verticalLabelPosition=bottom;align=center;labelBackgroundColor=#ffffff;verticalAlign=top;strokeWidth=2;strokeColor=#0080F0;shadow=0;dashed=0;shape=mxgraph.ios7.icons.heart;" parent="1" vertex="1">
          <mxGeometry x="312.03" y="260" width="30.599999999999998" height="27.3" as="geometry" />
        </mxCell>
        <mxCell id="0yMn6RcTjmXR4WvA116v-30" value="" style="html=1;verticalLabelPosition=bottom;align=center;labelBackgroundColor=#ffffff;verticalAlign=top;strokeWidth=2;strokeColor=#0080F0;shadow=0;dashed=0;shape=mxgraph.ios7.icons.looking_glass;" parent="1" vertex="1">
          <mxGeometry x="262.03" y="260" width="30" height="30" as="geometry" />
        </mxCell>
        <mxCell id="0yMn6RcTjmXR4WvA116v-31" value="" style="html=1;verticalLabelPosition=bottom;align=center;labelBackgroundColor=#ffffff;verticalAlign=top;strokeWidth=2;strokeColor=#0080F0;shadow=0;dashed=0;shape=mxgraph.ios7.icons.user;" parent="1" vertex="1">
          <mxGeometry x="362.03" y="260" width="30" height="30" as="geometry" />
        </mxCell>
        <mxCell id="0yMn6RcTjmXR4WvA116v-40" value="Валюта" style="rounded=1;whiteSpace=wrap;html=1;arcSize=50;fillColor=default;strokeColor=none;" parent="1" vertex="1">
          <mxGeometry x="449.36" y="60" width="115" height="30" as="geometry" />
        </mxCell>
        <mxCell id="0yMn6RcTjmXR4WvA116v-41" value="&amp;nbsp; &amp;nbsp; &amp;nbsp;Euro" style="rounded=1;whiteSpace=wrap;html=1;strokeColor=none;fillColor=none;" parent="1" vertex="1">
          <mxGeometry x="420" y="120" width="77.14" height="20" as="geometry" />
        </mxCell>
        <mxCell id="0yMn6RcTjmXR4WvA116v-42" value="U.S. Dollar" style="rounded=1;whiteSpace=wrap;html=1;strokeColor=none;" parent="1" vertex="1">
          <mxGeometry x="443.86" y="142" width="77.14" height="20" as="geometry" />
        </mxCell>
        <mxCell id="0yMn6RcTjmXR4WvA116v-45" value="" style="endArrow=none;html=1;rounded=0;entryX=0.817;entryY=0.007;entryDx=0;entryDy=0;entryPerimeter=0;" parent="1" target="0yMn6RcTjmXR4WvA116v-39" edge="1">
          <mxGeometry width="50" height="50" relative="1" as="geometry">
            <mxPoint x="432.03" y="252" as="sourcePoint" />
            <mxPoint x="572.03" y="250" as="targetPoint" />
          </mxGeometry>
        </mxCell>
        <mxCell id="0yMn6RcTjmXR4WvA116v-46" value="" style="html=1;verticalLabelPosition=bottom;align=center;labelBackgroundColor=#ffffff;verticalAlign=top;strokeWidth=2;strokeColor=#0080F0;shadow=0;dashed=0;shape=mxgraph.ios7.icons.heart;" parent="1" vertex="1">
          <mxGeometry x="492.03" y="260" width="30.599999999999998" height="27.3" as="geometry" />
        </mxCell>
        <mxCell id="0yMn6RcTjmXR4WvA116v-47" value="" style="html=1;verticalLabelPosition=bottom;align=center;labelBackgroundColor=#ffffff;verticalAlign=top;strokeWidth=2;strokeColor=#0080F0;shadow=0;dashed=0;shape=mxgraph.ios7.icons.looking_glass;" parent="1" vertex="1">
          <mxGeometry x="442.03" y="260" width="30" height="30" as="geometry" />
        </mxCell>
        <mxCell id="0yMn6RcTjmXR4WvA116v-48" value="" style="html=1;verticalLabelPosition=bottom;align=center;labelBackgroundColor=#ffffff;verticalAlign=top;strokeWidth=2;strokeColor=#0080F0;shadow=0;dashed=0;shape=mxgraph.ios7.icons.user;" parent="1" vertex="1">
          <mxGeometry x="542.03" y="260" width="30" height="30" as="geometry" />
        </mxCell>
        <mxCell id="0yMn6RcTjmXR4WvA116v-52" value="" style="shape=rect;fillColor=#e0e0e0;strokeColor=none;" parent="1" vertex="1">
          <mxGeometry x="444" y="90" width="130" height="20" as="geometry" />
        </mxCell>
        <mxCell id="0yMn6RcTjmXR4WvA116v-53" value="" style="html=1;strokeWidth=1;shadow=0;dashed=0;shape=mxgraph.ios7ui.marginRect;rx=3;ry=3;rectMargin=5;strokeColor=none;" parent="0yMn6RcTjmXR4WvA116v-52" vertex="1">
          <mxGeometry width="130" height="20" as="geometry" />
        </mxCell>
        <mxCell id="0yMn6RcTjmXR4WvA116v-54" value="Search" style="shape=mxgraph.ios7.icons.looking_glass;strokeColor=#e0e0e0;fillColor=none;fontColor=#e0e0e0;labelPosition=right;verticalLabelPosition=middle;align=left;verticalAlign=middle;fontSize=6;fontStyle=0;spacingTop=2;sketch=0;html=1;" parent="0yMn6RcTjmXR4WvA116v-52" vertex="1">
          <mxGeometry x="0.5" y="0.5" width="6" height="6" relative="1" as="geometry">
            <mxPoint x="-17" y="-3" as="offset" />
          </mxGeometry>
        </mxCell>
        <mxCell id="0yMn6RcTjmXR4WvA116v-96" value="&lt;span style=&quot;font-size: 10px;&quot;&gt;&lt;b&gt;Поиск валюты&lt;/b&gt;&lt;/span&gt;" style="rounded=1;whiteSpace=wrap;html=1;fontSize=10;" parent="0yMn6RcTjmXR4WvA116v-52" vertex="1">
          <mxGeometry width="130" height="20" as="geometry" />
        </mxCell>
        <mxCell id="0yMn6RcTjmXR4WvA116v-98" value="" style="html=1;verticalLabelPosition=bottom;align=center;labelBackgroundColor=#ffffff;verticalAlign=top;strokeWidth=2;strokeColor=#0080F0;shadow=0;dashed=0;shape=mxgraph.ios7.icons.looking_glass;" parent="0yMn6RcTjmXR4WvA116v-52" vertex="1">
          <mxGeometry x="9" y="4" width="11.97" height="10" as="geometry" />
        </mxCell>
        <mxCell id="0yMn6RcTjmXR4WvA116v-55" value="" style="html=1;verticalLabelPosition=bottom;labelBackgroundColor=#ffffff;verticalAlign=top;shadow=0;dashed=0;strokeWidth=2;shape=mxgraph.ios7.misc.scroll_(vertical);fillColor=#a0a0a0;" parent="1" vertex="1">
          <mxGeometry x="564" y="140" width="6" height="50" as="geometry" />
        </mxCell>
        <mxCell id="0yMn6RcTjmXR4WvA116v-56" value="Russian Ruble" style="rounded=1;whiteSpace=wrap;html=1;strokeColor=none;fontColor=#000000;fillColor=none;" parent="1" vertex="1">
          <mxGeometry x="449" y="210" width="90" height="20" as="geometry" />
        </mxCell>
        <mxCell id="0yMn6RcTjmXR4WvA116v-57" value="&amp;nbsp;Pound Sterling" style="rounded=1;whiteSpace=wrap;html=1;strokeColor=none;" parent="1" vertex="1">
          <mxGeometry x="441" y="164" width="100" height="20" as="geometry" />
        </mxCell>
        <mxCell id="0yMn6RcTjmXR4WvA116v-58" value="Korean Won&amp;nbsp; &amp;nbsp;" style="rounded=1;whiteSpace=wrap;html=1;strokeColor=none;" parent="1" vertex="1">
          <mxGeometry x="443" y="186" width="100" height="20" as="geometry" />
        </mxCell>
        <mxCell id="0yMn6RcTjmXR4WvA116v-59" value="" style="rounded=1;whiteSpace=wrap;html=1;rotation=90;" parent="1" vertex="1">
          <mxGeometry x="648" y="99" width="245.72" height="148.32" as="geometry" />
        </mxCell>
        <mxCell id="0yMn6RcTjmXR4WvA116v-61" value="Поиск жилья" style="rounded=1;whiteSpace=wrap;html=1;arcSize=50;fillColor=default;strokeColor=none;" parent="1" vertex="1">
          <mxGeometry x="713.36" y="59" width="115" height="30" as="geometry" />
        </mxCell>
        <mxCell id="0yMn6RcTjmXR4WvA116v-64" value="" style="endArrow=none;html=1;rounded=0;entryX=0.817;entryY=0.007;entryDx=0;entryDy=0;entryPerimeter=0;" parent="1" target="0yMn6RcTjmXR4WvA116v-59" edge="1">
          <mxGeometry width="50" height="50" relative="1" as="geometry">
            <mxPoint x="696.03" y="251" as="sourcePoint" />
            <mxPoint x="836.03" y="249" as="targetPoint" />
          </mxGeometry>
        </mxCell>
        <mxCell id="0yMn6RcTjmXR4WvA116v-65" value="" style="html=1;verticalLabelPosition=bottom;align=center;labelBackgroundColor=#ffffff;verticalAlign=top;strokeWidth=2;strokeColor=#0080F0;shadow=0;dashed=0;shape=mxgraph.ios7.icons.heart;" parent="1" vertex="1">
          <mxGeometry x="756.03" y="259" width="30.599999999999998" height="27.3" as="geometry" />
        </mxCell>
        <mxCell id="0yMn6RcTjmXR4WvA116v-66" value="" style="html=1;verticalLabelPosition=bottom;align=center;labelBackgroundColor=#ffffff;verticalAlign=top;strokeWidth=2;strokeColor=#0080F0;shadow=0;dashed=0;shape=mxgraph.ios7.icons.looking_glass;" parent="1" vertex="1">
          <mxGeometry x="706.03" y="259" width="30" height="30" as="geometry" />
        </mxCell>
        <mxCell id="0yMn6RcTjmXR4WvA116v-67" value="" style="html=1;verticalLabelPosition=bottom;align=center;labelBackgroundColor=#ffffff;verticalAlign=top;strokeWidth=2;strokeColor=#0080F0;shadow=0;dashed=0;shape=mxgraph.ios7.icons.user;" parent="1" vertex="1">
          <mxGeometry x="806.03" y="259" width="30" height="30" as="geometry" />
        </mxCell>
        <mxCell id="0yMn6RcTjmXR4WvA116v-76" value="Алматы&amp;nbsp; &amp;nbsp; &amp;nbsp; &amp;nbsp; &amp;nbsp;&amp;nbsp;" style="rounded=1;whiteSpace=wrap;html=1;align=center;fontSize=11;" parent="1" vertex="1">
          <mxGeometry x="711" y="99" width="120" height="20" as="geometry" />
        </mxCell>
        <mxCell id="0yMn6RcTjmXR4WvA116v-77" value="&amp;nbsp; &amp;nbsp; &amp;nbsp; &lt;span style=&quot;background-color: initial; font-size: 11px;&quot;&gt;13 нояб - 16 нояб&amp;nbsp; &amp;nbsp;&lt;/span&gt;" style="rounded=1;whiteSpace=wrap;html=1;align=center;fontSize=11;" parent="1" vertex="1">
          <mxGeometry x="711" y="119" width="120" height="20" as="geometry" />
        </mxCell>
        <mxCell id="0yMn6RcTjmXR4WvA116v-78" value="&lt;font style=&quot;font-size: 11px;&quot;&gt;2 взрослых&amp;nbsp; &amp;nbsp; &amp;nbsp;&amp;nbsp;&lt;/font&gt;" style="rounded=1;whiteSpace=wrap;html=1;" parent="1" vertex="1">
          <mxGeometry x="711" y="139" width="120" height="20" as="geometry" />
        </mxCell>
        <mxCell id="0yMn6RcTjmXR4WvA116v-79" value="" style="html=1;verticalLabelPosition=bottom;align=center;labelBackgroundColor=#ffffff;verticalAlign=top;strokeWidth=2;strokeColor=#0080F0;shadow=0;dashed=0;shape=mxgraph.ios7.icons.looking_glass;" parent="1" vertex="1">
          <mxGeometry x="716.03" y="102" width="11.97" height="10" as="geometry" />
        </mxCell>
        <mxCell id="0yMn6RcTjmXR4WvA116v-80" value="" style="html=1;verticalLabelPosition=bottom;align=center;labelBackgroundColor=#ffffff;verticalAlign=top;strokeWidth=2;strokeColor=#0080F0;shadow=0;dashed=0;shape=mxgraph.ios7.icons.user;" parent="1" vertex="1">
          <mxGeometry x="715" y="141" width="14" height="16" as="geometry" />
        </mxCell>
        <mxCell id="0yMn6RcTjmXR4WvA116v-81" value="" style="html=1;verticalLabelPosition=bottom;align=center;labelBackgroundColor=#ffffff;verticalAlign=top;strokeWidth=2;strokeColor=#0080F0;shadow=0;dashed=0;shape=mxgraph.ios7.icons.calendar;" parent="1" vertex="1">
          <mxGeometry x="717" y="124" width="10" height="10" as="geometry" />
        </mxCell>
        <mxCell id="0yMn6RcTjmXR4WvA116v-82" value="&lt;span style=&quot;font-size: 11px;&quot;&gt;Найти&lt;/span&gt;" style="rounded=1;whiteSpace=wrap;html=1;fontColor=#FFFFFF;labelBackgroundColor=none;fillColor=#3D8BFF;" parent="1" vertex="1">
          <mxGeometry x="711" y="159" width="120" height="20" as="geometry" />
        </mxCell>
        <mxCell id="0yMn6RcTjmXR4WvA116v-83" value="" style="rounded=1;whiteSpace=wrap;html=1;rotation=90;" parent="1" vertex="1">
          <mxGeometry x="828" y="99" width="245.72" height="148.32" as="geometry" />
        </mxCell>
        <mxCell id="0yMn6RcTjmXR4WvA116v-84" value="Результаты поиска" style="rounded=1;whiteSpace=wrap;html=1;arcSize=50;fillColor=default;strokeColor=none;" parent="1" vertex="1">
          <mxGeometry x="893.3600000000001" y="59" width="115" height="30" as="geometry" />
        </mxCell>
        <mxCell id="0yMn6RcTjmXR4WvA116v-85" value="" style="endArrow=none;html=1;rounded=0;entryX=0.817;entryY=0.007;entryDx=0;entryDy=0;entryPerimeter=0;" parent="1" target="0yMn6RcTjmXR4WvA116v-83" edge="1">
          <mxGeometry width="50" height="50" relative="1" as="geometry">
            <mxPoint x="876.03" y="251" as="sourcePoint" />
            <mxPoint x="1016.03" y="249" as="targetPoint" />
          </mxGeometry>
        </mxCell>
        <mxCell id="0yMn6RcTjmXR4WvA116v-86" value="" style="html=1;verticalLabelPosition=bottom;align=center;labelBackgroundColor=#ffffff;verticalAlign=top;strokeWidth=2;strokeColor=#0080F0;shadow=0;dashed=0;shape=mxgraph.ios7.icons.heart;" parent="1" vertex="1">
          <mxGeometry x="936.03" y="259" width="30.599999999999998" height="27.3" as="geometry" />
        </mxCell>
        <mxCell id="0yMn6RcTjmXR4WvA116v-87" value="" style="html=1;verticalLabelPosition=bottom;align=center;labelBackgroundColor=#ffffff;verticalAlign=top;strokeWidth=2;strokeColor=#0080F0;shadow=0;dashed=0;shape=mxgraph.ios7.icons.looking_glass;" parent="1" vertex="1">
          <mxGeometry x="886.03" y="259" width="30" height="30" as="geometry" />
        </mxCell>
        <mxCell id="0yMn6RcTjmXR4WvA116v-88" value="" style="html=1;verticalLabelPosition=bottom;align=center;labelBackgroundColor=#ffffff;verticalAlign=top;strokeWidth=2;strokeColor=#0080F0;shadow=0;dashed=0;shape=mxgraph.ios7.icons.user;" parent="1" vertex="1">
          <mxGeometry x="986.03" y="259" width="30" height="30" as="geometry" />
        </mxCell>
        <mxCell id="0yMn6RcTjmXR4WvA116v-99" value="image" style="rounded=1;whiteSpace=wrap;html=1;" parent="1" vertex="1">
          <mxGeometry x="885" y="89" width="60" height="60" as="geometry" />
        </mxCell>
        <mxCell id="0yMn6RcTjmXR4WvA116v-100" value="image" style="rounded=1;whiteSpace=wrap;html=1;" parent="1" vertex="1">
          <mxGeometry x="886" y="159" width="60" height="60" as="geometry" />
        </mxCell>
        <mxCell id="0yMn6RcTjmXR4WvA116v-103" value="" style="html=1;verticalLabelPosition=bottom;labelBackgroundColor=#ffffff;verticalAlign=top;shadow=0;dashed=0;strokeWidth=2;shape=mxgraph.ios7.misc.scroll_(vertical);fillColor=#a0a0a0;" parent="1" vertex="1">
          <mxGeometry x="1008" y="89" width="6" height="50" as="geometry" />
        </mxCell>
        <mxCell id="0yMn6RcTjmXR4WvA116v-104" value="&lt;font size=&quot;1&quot; style=&quot;&quot;&gt;&lt;b style=&quot;font-size: 7px;&quot;&gt;Жилье № 1&amp;nbsp; &amp;nbsp;&amp;nbsp;&lt;/b&gt;&lt;/font&gt;&lt;div style=&quot;&quot;&gt;&lt;font style=&quot;font-size: 6px;&quot;&gt;&amp;nbsp;7 км от центра&lt;/font&gt;&lt;/div&gt;&lt;div style=&quot;&quot;&gt;&lt;font style=&quot;font-size: 6px;&quot;&gt;3 ночи:&lt;/font&gt;&lt;/div&gt;&lt;div style=&quot;&quot;&gt;&lt;font style=&quot;font-size: 6px;&quot;&gt;&lt;br&gt;&lt;/font&gt;&lt;/div&gt;" style="rounded=1;whiteSpace=wrap;html=1;align=left;strokeColor=none;arcSize=29;" parent="1" vertex="1">
          <mxGeometry x="951" y="90" width="50" height="50" as="geometry" />
        </mxCell>
        <mxCell id="0yMn6RcTjmXR4WvA116v-101" value="" style="html=1;verticalLabelPosition=bottom;align=center;labelBackgroundColor=#ffffff;verticalAlign=top;strokeWidth=1;strokeColor=#0080F0;shadow=0;dashed=0;shape=mxgraph.ios7.icons.heart;perimeterSpacing=0;" parent="1" vertex="1">
          <mxGeometry x="996" y="91" width="8" height="8" as="geometry" />
        </mxCell>
        <mxCell id="0yMn6RcTjmXR4WvA116v-106" value="&lt;div style=&quot;&quot;&gt;&lt;font color=&quot;#528bff&quot; size=&quot;1&quot; style=&quot;&quot;&gt;&lt;b style=&quot;font-size: 8px;&quot;&gt;12 998 руб.&lt;/b&gt;&lt;/font&gt;&lt;/div&gt;" style="rounded=1;whiteSpace=wrap;html=1;align=left;strokeColor=none;arcSize=29;" parent="1" vertex="1">
          <mxGeometry x="950" y="132" width="50" height="10" as="geometry" />
        </mxCell>
        <mxCell id="0yMn6RcTjmXR4WvA116v-107" value="&lt;font size=&quot;1&quot; style=&quot;&quot;&gt;&lt;b style=&quot;font-size: 7px;&quot;&gt;Жилье № 2&amp;nbsp; &amp;nbsp;&amp;nbsp;&lt;/b&gt;&lt;/font&gt;&lt;div style=&quot;&quot;&gt;&lt;font style=&quot;font-size: 6px;&quot;&gt;&amp;nbsp;5 км от центра&lt;/font&gt;&lt;/div&gt;&lt;div style=&quot;&quot;&gt;&lt;font style=&quot;font-size: 6px;&quot;&gt;3 ночи:&lt;/font&gt;&lt;/div&gt;&lt;div style=&quot;&quot;&gt;&lt;font style=&quot;font-size: 6px;&quot;&gt;&lt;br&gt;&lt;/font&gt;&lt;/div&gt;" style="rounded=1;whiteSpace=wrap;html=1;align=left;strokeColor=none;arcSize=29;" parent="1" vertex="1">
          <mxGeometry x="953" y="159" width="50" height="50" as="geometry" />
        </mxCell>
        <mxCell id="0yMn6RcTjmXR4WvA116v-108" value="&lt;div style=&quot;&quot;&gt;&lt;font color=&quot;#528bff&quot; size=&quot;1&quot; style=&quot;&quot;&gt;&lt;b style=&quot;font-size: 8px;&quot;&gt;14 708 руб.&lt;/b&gt;&lt;/font&gt;&lt;/div&gt;" style="rounded=1;whiteSpace=wrap;html=1;align=left;strokeColor=none;arcSize=29;" parent="1" vertex="1">
          <mxGeometry x="953" y="200" width="50" height="10" as="geometry" />
        </mxCell>
        <mxCell id="0yMn6RcTjmXR4WvA116v-115" value="2. Настройки" style="rounded=1;whiteSpace=wrap;html=1;strokeColor=none;" parent="1" vertex="1">
          <mxGeometry x="264" y="10" width="120" height="40" as="geometry" />
        </mxCell>
        <mxCell id="0yMn6RcTjmXR4WvA116v-119" value="" style="rounded=1;whiteSpace=wrap;html=1;rotation=90;" parent="1" vertex="1">
          <mxGeometry x="383" y="419" width="245.72" height="148.32" as="geometry" />
        </mxCell>
        <mxCell id="0yMn6RcTjmXR4WvA116v-121" value="Валюта" style="rounded=1;whiteSpace=wrap;html=1;arcSize=50;fillColor=default;strokeColor=none;" parent="1" vertex="1">
          <mxGeometry x="448.36" y="379" width="115" height="30" as="geometry" />
        </mxCell>
        <mxCell id="0yMn6RcTjmXR4WvA116v-124" value="" style="endArrow=none;html=1;rounded=0;entryX=0.817;entryY=0.007;entryDx=0;entryDy=0;entryPerimeter=0;" parent="1" target="0yMn6RcTjmXR4WvA116v-119" edge="1">
          <mxGeometry width="50" height="50" relative="1" as="geometry">
            <mxPoint x="431.03" y="571" as="sourcePoint" />
            <mxPoint x="571.03" y="569" as="targetPoint" />
          </mxGeometry>
        </mxCell>
        <mxCell id="0yMn6RcTjmXR4WvA116v-125" value="" style="html=1;verticalLabelPosition=bottom;align=center;labelBackgroundColor=#ffffff;verticalAlign=top;strokeWidth=2;strokeColor=#0080F0;shadow=0;dashed=0;shape=mxgraph.ios7.icons.heart;" parent="1" vertex="1">
          <mxGeometry x="491.03" y="579" width="30.599999999999998" height="27.3" as="geometry" />
        </mxCell>
        <mxCell id="0yMn6RcTjmXR4WvA116v-126" value="" style="html=1;verticalLabelPosition=bottom;align=center;labelBackgroundColor=#ffffff;verticalAlign=top;strokeWidth=2;strokeColor=#0080F0;shadow=0;dashed=0;shape=mxgraph.ios7.icons.looking_glass;" parent="1" vertex="1">
          <mxGeometry x="441.03" y="579" width="30" height="30" as="geometry" />
        </mxCell>
        <mxCell id="0yMn6RcTjmXR4WvA116v-127" value="" style="html=1;verticalLabelPosition=bottom;align=center;labelBackgroundColor=#ffffff;verticalAlign=top;strokeWidth=2;strokeColor=#0080F0;shadow=0;dashed=0;shape=mxgraph.ios7.icons.user;" parent="1" vertex="1">
          <mxGeometry x="541.03" y="579" width="30" height="30" as="geometry" />
        </mxCell>
        <mxCell id="0yMn6RcTjmXR4WvA116v-128" value="" style="shape=rect;fillColor=none;strokeColor=none;" parent="1" vertex="1">
          <mxGeometry x="443" y="409" width="130" height="20" as="geometry" />
        </mxCell>
        <mxCell id="0yMn6RcTjmXR4WvA116v-129" value="" style="html=1;strokeWidth=1;shadow=0;dashed=0;shape=mxgraph.ios7ui.marginRect;rx=3;ry=3;rectMargin=5;strokeColor=none;" parent="0yMn6RcTjmXR4WvA116v-128" vertex="1">
          <mxGeometry width="130" height="20" as="geometry" />
        </mxCell>
        <mxCell id="0yMn6RcTjmXR4WvA116v-130" value="Search" style="shape=mxgraph.ios7.icons.looking_glass;strokeColor=#e0e0e0;fillColor=none;fontColor=#e0e0e0;labelPosition=right;verticalLabelPosition=middle;align=left;verticalAlign=middle;fontSize=6;fontStyle=0;spacingTop=2;sketch=0;html=1;" parent="0yMn6RcTjmXR4WvA116v-128" vertex="1">
          <mxGeometry x="0.5" y="0.5" width="6" height="6" relative="1" as="geometry">
            <mxPoint x="-17" y="-3" as="offset" />
          </mxGeometry>
        </mxCell>
        <mxCell id="0yMn6RcTjmXR4WvA116v-131" value="" style="rounded=1;whiteSpace=wrap;html=1;fontSize=10;" parent="0yMn6RcTjmXR4WvA116v-128" vertex="1">
          <mxGeometry width="130" height="20" as="geometry" />
        </mxCell>
        <mxCell id="0yMn6RcTjmXR4WvA116v-132" value="" style="html=1;verticalLabelPosition=bottom;align=center;labelBackgroundColor=#ffffff;verticalAlign=top;strokeWidth=2;strokeColor=#0080F0;shadow=0;dashed=0;shape=mxgraph.ios7.icons.looking_glass;" parent="0yMn6RcTjmXR4WvA116v-128" vertex="1">
          <mxGeometry x="9" y="4" width="11.97" height="10" as="geometry" />
        </mxCell>
        <mxCell id="0yMn6RcTjmXR4WvA116v-137" value="&lt;font style=&quot;font-size: 11px;&quot;&gt;Russian Ru&lt;/font&gt;" style="rounded=1;whiteSpace=wrap;html=1;strokeColor=none;fontColor=#000000;fillColor=none;fontStyle=1" parent="0yMn6RcTjmXR4WvA116v-128" vertex="1">
          <mxGeometry x="25" width="90" height="20" as="geometry" />
        </mxCell>
        <mxCell id="0yMn6RcTjmXR4WvA116v-133" value="" style="html=1;verticalLabelPosition=bottom;labelBackgroundColor=#ffffff;verticalAlign=top;shadow=0;dashed=0;strokeWidth=2;shape=mxgraph.ios7.misc.scroll_(vertical);fillColor=#a0a0a0;" parent="1" vertex="1">
          <mxGeometry x="564" y="437" width="6" height="50" as="geometry" />
        </mxCell>
        <mxCell id="0yMn6RcTjmXR4WvA116v-134" value="Russian Ruble" style="rounded=1;whiteSpace=wrap;html=1;strokeColor=none;fontColor=#000000;fillColor=none;" parent="1" vertex="1">
          <mxGeometry x="440" y="440" width="100" height="20" as="geometry" />
        </mxCell>
        <mxCell id="0yMn6RcTjmXR4WvA116v-139" value="3. Выбор валюты (скролинг)" style="rounded=1;whiteSpace=wrap;html=1;strokeColor=none;" parent="1" vertex="1">
          <mxGeometry x="444" y="10" width="120" height="40" as="geometry" />
        </mxCell>
        <mxCell id="0yMn6RcTjmXR4WvA116v-140" value="просмотр&amp;nbsp;&lt;div&gt;доступных&amp;nbsp;&lt;/div&gt;&lt;div&gt;вариантов&lt;/div&gt;" style="endArrow=classic;startArrow=classic;html=1;rounded=0;" parent="1" edge="1">
          <mxGeometry width="50" height="50" relative="1" as="geometry">
            <mxPoint x="614" y="230" as="sourcePoint" />
            <mxPoint x="614" y="110" as="targetPoint" />
          </mxGeometry>
        </mxCell>
        <mxCell id="0yMn6RcTjmXR4WvA116v-142" value="поиск через&amp;nbsp;&lt;div&gt;строку ввода&lt;/div&gt;" style="endArrow=classic;html=1;rounded=0;" parent="1" edge="1">
          <mxGeometry x="1" y="20" width="50" height="50" relative="1" as="geometry">
            <mxPoint x="573" y="419" as="sourcePoint" />
            <mxPoint x="598" y="419" as="targetPoint" />
            <mxPoint x="20" y="20" as="offset" />
          </mxGeometry>
        </mxCell>
        <mxCell id="0yMn6RcTjmXR4WvA116v-165" value="тап&lt;br&gt;перенаправляет на&amp;nbsp;&lt;div&gt;экран поиска&lt;/div&gt;" style="endArrow=classic;html=1;rounded=0;labelBackgroundColor=none;" parent="1" edge="1">
          <mxGeometry x="0.4545" y="-24" width="50" height="50" relative="1" as="geometry">
            <mxPoint x="490" y="226" as="sourcePoint" />
            <mxPoint x="700" y="235" as="targetPoint" />
            <Array as="points">
              <mxPoint x="490" y="236" />
              <mxPoint x="640" y="236" />
            </Array>
            <mxPoint as="offset" />
          </mxGeometry>
        </mxCell>
        <mxCell id="0yMn6RcTjmXR4WvA116v-185" value="3 Выбор валюты (через строку ввода)" style="rounded=1;whiteSpace=wrap;html=1;strokeColor=none;" parent="1" vertex="1">
          <mxGeometry x="443" y="328" width="120" height="40" as="geometry" />
        </mxCell>
        <mxCell id="0yMn6RcTjmXR4WvA116v-189" value="тап перенаправляет&amp;nbsp;&lt;div&gt;на экран поиска&lt;/div&gt;" style="endArrow=classic;html=1;rounded=0;entryX=1.002;entryY=0.782;entryDx=0;entryDy=0;entryPerimeter=0;" parent="1" target="0yMn6RcTjmXR4WvA116v-59" edge="1">
          <mxGeometry x="0.6029" y="10" width="50" height="50" relative="1" as="geometry">
            <mxPoint x="503" y="458" as="sourcePoint" />
            <mxPoint x="800" y="470" as="targetPoint" />
            <Array as="points">
              <mxPoint x="503" y="468" />
              <mxPoint x="653" y="468" />
              <mxPoint x="729" y="470" />
            </Array>
            <mxPoint as="offset" />
          </mxGeometry>
        </mxCell>
        <mxCell id="0yMn6RcTjmXR4WvA116v-195" value="4.. Поиск жилья (ввели параментры)" style="rounded=1;whiteSpace=wrap;html=1;strokeColor=none;" parent="1" vertex="1">
          <mxGeometry x="708" y="9" width="120" height="40" as="geometry" />
        </mxCell>
        <mxCell id="0yMn6RcTjmXR4WvA116v-196" value="просмотр доступных вариантов,&amp;nbsp;&lt;div&gt;ключевая информация&amp;nbsp;&lt;/div&gt;&lt;div&gt;о каждом варианте&lt;/div&gt;" style="endArrow=classic;startArrow=classic;html=1;rounded=0;" parent="1" edge="1">
          <mxGeometry x="0.1429" y="-70" width="50" height="50" relative="1" as="geometry">
            <mxPoint x="1048" y="239" as="sourcePoint" />
            <mxPoint x="1048" y="99" as="targetPoint" />
            <mxPoint as="offset" />
          </mxGeometry>
        </mxCell>
        <mxCell id="0yMn6RcTjmXR4WvA116v-198" value="" style="html=1;verticalLabelPosition=bottom;align=center;labelBackgroundColor=#ffffff;verticalAlign=top;strokeWidth=1;strokeColor=#0080F0;shadow=0;dashed=0;shape=mxgraph.ios7.icons.heart;perimeterSpacing=0;" parent="1" vertex="1">
          <mxGeometry x="998" y="159" width="8" height="8" as="geometry" />
        </mxCell>
        <mxCell id="0yMn6RcTjmXR4WvA116v-199" value="" style="endArrow=classic;html=1;rounded=0;" parent="1" edge="1">
          <mxGeometry width="50" height="50" relative="1" as="geometry">
            <mxPoint x="999" y="206" as="sourcePoint" />
            <mxPoint x="1089" y="206" as="targetPoint" />
            <Array as="points">
              <mxPoint x="1059" y="206" />
            </Array>
          </mxGeometry>
        </mxCell>
        <mxCell id="0yMn6RcTjmXR4WvA116v-200" value="цена указана в рублях по курсу ЦБ на текущую дату" style="rounded=1;whiteSpace=wrap;html=1;strokeColor=none;" parent="1" vertex="1">
          <mxGeometry x="1091" y="190" width="169" height="41" as="geometry" />
        </mxCell>
        <mxCell id="0yMn6RcTjmXR4WvA116v-201" value="5.. Результат поиска по заданным параметрам" style="rounded=1;whiteSpace=wrap;html=1;strokeColor=none;" parent="1" vertex="1">
          <mxGeometry x="888" y="9" width="120" height="40" as="geometry" />
        </mxCell>
        <mxCell id="0yMn6RcTjmXR4WvA116v-203" value="Я как пользователь приложения для бронирования жилья по всему миру Booking, хочу видеть&lt;br style=&quot;font-size: 15px;&quot;&gt;стоимость бронирования жилья в валюте своей страны по курсу Центробанка на этот день, чтобы&lt;br style=&quot;font-size: 15px;&quot;&gt;понимать стоимость бронирования." style="rounded=1;whiteSpace=wrap;html=1;fontSize=15;" parent="1" vertex="1">
          <mxGeometry x="780" y="415" width="700" height="130" as="geometry" />
        </mxCell>
        <mxCell id="0yMn6RcTjmXR4WvA116v-204" value="USER STORY" style="text;html=1;align=center;verticalAlign=middle;resizable=0;points=[];autosize=1;strokeColor=none;fillColor=none;fontSize=21;" parent="1" vertex="1">
          <mxGeometry x="1047" y="370" width="160" height="40" as="geometry" />
        </mxCell>
        <mxCell id="0yMn6RcTjmXR4WvA116v-205" value="" style="html=1;verticalLabelPosition=bottom;labelBackgroundColor=#ffffff;verticalAlign=top;shadow=0;dashed=0;strokeWidth=2;shape=mxgraph.ios7.misc.left;strokeColor=#0080f0;" parent="1" vertex="1">
          <mxGeometry x="454" y="70" width="6" height="12" as="geometry" />
        </mxCell>
        <mxCell id="0yMn6RcTjmXR4WvA116v-208" value="" style="edgeStyle=segmentEdgeStyle;endArrow=classic;html=1;curved=0;rounded=0;endSize=8;startSize=8;entryX=0.421;entryY=1.015;entryDx=0;entryDy=0;entryPerimeter=0;" parent="1" target="0yMn6RcTjmXR4WvA116v-83" edge="1">
          <mxGeometry width="50" height="50" relative="1" as="geometry">
            <mxPoint x="792" y="168.9999999999999" as="sourcePoint" />
            <mxPoint x="860.2550400000002" y="120.82164" as="targetPoint" />
            <Array as="points">
              <mxPoint x="792" y="199" />
              <mxPoint x="860" y="199" />
              <mxPoint x="860" y="154" />
            </Array>
          </mxGeometry>
        </mxCell>
        <mxCell id="0yMn6RcTjmXR4WvA116v-209" value="тап" style="edgeLabel;html=1;align=center;verticalAlign=middle;resizable=0;points=[];" parent="0yMn6RcTjmXR4WvA116v-208" vertex="1" connectable="0">
          <mxGeometry x="-0.7172" y="-1" relative="1" as="geometry">
            <mxPoint x="1" y="6" as="offset" />
          </mxGeometry>
        </mxCell>
        <mxCell id="0yMn6RcTjmXR4WvA116v-207" value="" style="html=1;verticalLabelPosition=bottom;labelBackgroundColor=#ffffff;verticalAlign=top;shadow=0;dashed=0;strokeWidth=2;shape=mxgraph.ios7.misc.left;strokeColor=#0080f0;" parent="1" vertex="1">
          <mxGeometry x="888" y="69" width="6" height="12" as="geometry" />
        </mxCell>
        <mxCell id="0yMn6RcTjmXR4WvA116v-210" value="" style="html=1;verticalLabelPosition=bottom;labelBackgroundColor=#ffffff;verticalAlign=top;shadow=0;dashed=0;strokeWidth=2;shape=mxgraph.ios7.misc.left;strokeColor=#0080f0;" parent="1" vertex="1">
          <mxGeometry x="453" y="387" width="6" height="12" as="geometry" />
        </mxCell>
        <mxCell id="0yMn6RcTjmXR4WvA116v-212" value="" style="edgeStyle=segmentEdgeStyle;endArrow=classic;html=1;curved=0;rounded=0;endSize=8;startSize=8;exitX=-0.037;exitY=0.269;exitDx=0;exitDy=0;exitPerimeter=0;entryX=0.089;entryY=-0.007;entryDx=0;entryDy=0;entryPerimeter=0;" parent="1" source="0yMn6RcTjmXR4WvA116v-205" target="0yMn6RcTjmXR4WvA116v-1" edge="1">
          <mxGeometry width="50" height="50" relative="1" as="geometry">
            <mxPoint x="374" y="40" as="sourcePoint" />
            <mxPoint x="424" y="-10" as="targetPoint" />
          </mxGeometry>
        </mxCell>
        <mxCell id="0yMn6RcTjmXR4WvA116v-213" value="назад" style="edgeLabel;html=1;align=center;verticalAlign=middle;resizable=0;points=[];" parent="0yMn6RcTjmXR4WvA116v-212" vertex="1" connectable="0">
          <mxGeometry x="0.0054" relative="1" as="geometry">
            <mxPoint as="offset" />
          </mxGeometry>
        </mxCell>
        <mxCell id="0yMn6RcTjmXR4WvA116v-214" value="" style="edgeStyle=segmentEdgeStyle;endArrow=classic;html=1;curved=0;rounded=0;endSize=8;startSize=8;entryX=0.144;entryY=0.005;entryDx=0;entryDy=0;entryPerimeter=0;exitX=0.407;exitY=0.713;exitDx=0;exitDy=0;exitPerimeter=0;" parent="1" source="0yMn6RcTjmXR4WvA116v-210" target="0yMn6RcTjmXR4WvA116v-1" edge="1">
          <mxGeometry width="50" height="50" relative="1" as="geometry">
            <mxPoint x="414" y="420" as="sourcePoint" />
            <mxPoint x="412" y="83" as="targetPoint" />
            <Array as="points">
              <mxPoint x="455" y="393" />
              <mxPoint x="424" y="393" />
              <mxPoint x="424" y="87" />
            </Array>
          </mxGeometry>
        </mxCell>
        <mxCell id="0yMn6RcTjmXR4WvA116v-215" value="назад" style="edgeLabel;html=1;align=center;verticalAlign=middle;resizable=0;points=[];" parent="0yMn6RcTjmXR4WvA116v-214" vertex="1" connectable="0">
          <mxGeometry x="0.0054" relative="1" as="geometry">
            <mxPoint x="-4" y="76" as="offset" />
          </mxGeometry>
        </mxCell>
        <mxCell id="0yMn6RcTjmXR4WvA116v-217" value="" style="edgeStyle=segmentEdgeStyle;endArrow=classic;html=1;curved=0;rounded=0;endSize=8;startSize=8;" parent="1" edge="1">
          <mxGeometry width="50" height="50" relative="1" as="geometry">
            <mxPoint x="888" y="66" as="sourcePoint" />
            <mxPoint x="818" y="59" as="targetPoint" />
            <Array as="points">
              <mxPoint x="888" y="59" />
            </Array>
          </mxGeometry>
        </mxCell>
        <mxCell id="0yMn6RcTjmXR4WvA116v-218" value="назад" style="edgeLabel;html=1;align=center;verticalAlign=middle;resizable=0;points=[];" parent="0yMn6RcTjmXR4WvA116v-217" vertex="1" connectable="0">
          <mxGeometry x="0.0054" relative="1" as="geometry">
            <mxPoint y="10" as="offset" />
          </mxGeometry>
        </mxCell>
        <mxCell id="0yMn6RcTjmXR4WvA116v-358" value="" style="endArrow=classic;html=1;rounded=0;entryX=0.57;entryY=0.983;entryDx=0;entryDy=0;entryPerimeter=0;" parent="1" target="0yMn6RcTjmXR4WvA116v-39" edge="1">
          <mxGeometry width="50" height="50" relative="1" as="geometry">
            <mxPoint x="370" y="190" as="sourcePoint" />
            <mxPoint x="420" y="140" as="targetPoint" />
          </mxGeometry>
        </mxCell>
        <mxCell id="0yMn6RcTjmXR4WvA116v-359" value="тап" style="edgeLabel;html=1;align=center;verticalAlign=middle;resizable=0;points=[];" parent="0yMn6RcTjmXR4WvA116v-358" vertex="1" connectable="0">
          <mxGeometry x="-0.1032" y="-2" relative="1" as="geometry">
            <mxPoint x="11" y="-13" as="offset" />
          </mxGeometry>
        </mxCell>
        <mxCell id="0yMn6RcTjmXR4WvA116v-360" value="" style="rounded=1;whiteSpace=wrap;html=1;rotation=90;" parent="1" vertex="1">
          <mxGeometry x="-10" y="100" width="245.72" height="148.32" as="geometry" />
        </mxCell>
        <mxCell id="0yMn6RcTjmXR4WvA116v-361" value="Личный кабинет" style="rounded=1;whiteSpace=wrap;html=1;arcSize=50;fillColor=default;strokeColor=none;" parent="1" vertex="1">
          <mxGeometry x="53.360000000000014" y="60" width="115" height="30" as="geometry" />
        </mxCell>
        <mxCell id="0yMn6RcTjmXR4WvA116v-362" value="Мой аккаунт" style="rounded=1;whiteSpace=wrap;html=1;strokeColor=none;fillColor=none;" parent="1" vertex="1">
          <mxGeometry x="73" y="100" width="77.14" height="20" as="geometry" />
        </mxCell>
        <mxCell id="0yMn6RcTjmXR4WvA116v-366" value="" style="endArrow=none;html=1;rounded=0;entryX=0.817;entryY=0.007;entryDx=0;entryDy=0;entryPerimeter=0;" parent="1" target="0yMn6RcTjmXR4WvA116v-360" edge="1">
          <mxGeometry width="50" height="50" relative="1" as="geometry">
            <mxPoint x="38.02999999999997" y="252" as="sourcePoint" />
            <mxPoint x="178.02999999999997" y="250" as="targetPoint" />
          </mxGeometry>
        </mxCell>
        <mxCell id="0yMn6RcTjmXR4WvA116v-367" value="" style="html=1;verticalLabelPosition=bottom;align=center;labelBackgroundColor=#ffffff;verticalAlign=top;strokeWidth=2;strokeColor=#0080F0;shadow=0;dashed=0;shape=mxgraph.ios7.icons.heart;" parent="1" vertex="1">
          <mxGeometry x="98.02999999999997" y="260" width="30.599999999999998" height="27.3" as="geometry" />
        </mxCell>
        <mxCell id="0yMn6RcTjmXR4WvA116v-368" value="" style="html=1;verticalLabelPosition=bottom;align=center;labelBackgroundColor=#ffffff;verticalAlign=top;strokeWidth=2;strokeColor=#0080F0;shadow=0;dashed=0;shape=mxgraph.ios7.icons.looking_glass;" parent="1" vertex="1">
          <mxGeometry x="48.02999999999997" y="260" width="30" height="30" as="geometry" />
        </mxCell>
        <mxCell id="0yMn6RcTjmXR4WvA116v-369" value="" style="html=1;verticalLabelPosition=bottom;align=center;labelBackgroundColor=#ffffff;verticalAlign=top;strokeWidth=2;strokeColor=#0080F0;shadow=0;dashed=0;shape=mxgraph.ios7.icons.user;" parent="1" vertex="1">
          <mxGeometry x="148.02999999999997" y="260" width="30" height="30" as="geometry" />
        </mxCell>
        <mxCell id="0yMn6RcTjmXR4WvA116v-372" value="" style="html=1;verticalLabelPosition=bottom;align=center;labelBackgroundColor=#ffffff;verticalAlign=top;strokeWidth=2;strokeColor=#0080F0;shadow=0;dashed=0;shape=mxgraph.ios7.icons.user;" parent="1" vertex="1">
          <mxGeometry x="50" y="100" width="20" height="20" as="geometry" />
        </mxCell>
        <mxCell id="0yMn6RcTjmXR4WvA116v-373" value="" style="html=1;verticalLabelPosition=bottom;align=center;labelBackgroundColor=#ffffff;verticalAlign=top;strokeWidth=2;strokeColor=#0080F0;shadow=0;dashed=0;shape=mxgraph.ios7.icons.settings;" parent="1" vertex="1">
          <mxGeometry x="50" y="190" width="20" height="20" as="geometry" />
        </mxCell>
        <mxCell id="0yMn6RcTjmXR4WvA116v-374" value="" style="html=1;verticalLabelPosition=bottom;align=center;labelBackgroundColor=#ffffff;verticalAlign=top;strokeWidth=2;strokeColor=#0080F0;shadow=0;dashed=0;shape=mxgraph.ios7.icons.envelope_(message);" parent="1" vertex="1">
          <mxGeometry x="50" y="130" width="20" height="20" as="geometry" />
        </mxCell>
        <mxCell id="0yMn6RcTjmXR4WvA116v-375" value="" style="html=1;verticalLabelPosition=bottom;align=center;labelBackgroundColor=#ffffff;verticalAlign=top;strokeWidth=2;strokeColor=#0080F0;shadow=0;dashed=0;shape=mxgraph.ios7.icons.help;" parent="1" vertex="1">
          <mxGeometry x="50" y="220" width="20" height="20" as="geometry" />
        </mxCell>
        <mxCell id="0yMn6RcTjmXR4WvA116v-376" value="" style="html=1;verticalLabelPosition=bottom;align=center;labelBackgroundColor=#ffffff;verticalAlign=top;strokeWidth=2;strokeColor=#0080F0;shadow=0;dashed=0;shape=mxgraph.ios7.icons.briefcase;" parent="1" vertex="1">
          <mxGeometry x="50" y="161" width="20" height="20" as="geometry" />
        </mxCell>
        <mxCell id="0yMn6RcTjmXR4WvA116v-377" value="Моя почта" style="rounded=1;whiteSpace=wrap;html=1;strokeColor=none;fillColor=none;" parent="1" vertex="1">
          <mxGeometry x="67" y="132" width="77.14" height="20" as="geometry" />
        </mxCell>
        <mxCell id="0yMn6RcTjmXR4WvA116v-378" value="&lt;br&gt;Мои бронирования" style="rounded=1;whiteSpace=wrap;html=1;strokeColor=none;fillColor=none;" parent="1" vertex="1">
          <mxGeometry x="70" y="155" width="116" height="20" as="geometry" />
        </mxCell>
        <mxCell id="0yMn6RcTjmXR4WvA116v-379" value="Настройки" style="rounded=1;whiteSpace=wrap;html=1;strokeColor=none;fillColor=none;" parent="1" vertex="1">
          <mxGeometry x="48" y="191" width="116" height="20" as="geometry" />
        </mxCell>
        <mxCell id="0yMn6RcTjmXR4WvA116v-380" value="Помощь" style="rounded=1;whiteSpace=wrap;html=1;strokeColor=none;fillColor=none;" parent="1" vertex="1">
          <mxGeometry x="40" y="220" width="116" height="20" as="geometry" />
        </mxCell>
        <mxCell id="0yMn6RcTjmXR4WvA116v-381" value="" style="edgeStyle=segmentEdgeStyle;endArrow=classic;html=1;curved=0;rounded=0;endSize=8;startSize=8;" parent="1" source="0yMn6RcTjmXR4WvA116v-379" target="0yMn6RcTjmXR4WvA116v-2" edge="1">
          <mxGeometry width="50" height="50" relative="1" as="geometry">
            <mxPoint x="130" y="350" as="sourcePoint" />
            <mxPoint x="220" y="70" as="targetPoint" />
            <Array as="points">
              <mxPoint x="220" y="201" />
              <mxPoint x="220" y="75" />
            </Array>
          </mxGeometry>
        </mxCell>
        <mxCell id="0yMn6RcTjmXR4WvA116v-382" value="тап" style="edgeLabel;html=1;align=center;verticalAlign=middle;resizable=0;points=[];" parent="0yMn6RcTjmXR4WvA116v-381" vertex="1" connectable="0">
          <mxGeometry x="0.065" relative="1" as="geometry">
            <mxPoint as="offset" />
          </mxGeometry>
        </mxCell>
        <mxCell id="0yMn6RcTjmXR4WvA116v-383" value="1. Личный кабинет" style="rounded=1;whiteSpace=wrap;html=1;strokeColor=none;" parent="1" vertex="1">
          <mxGeometry x="55" y="7" width="120" height="40" as="geometry" />
        </mxCell>
        <mxCell id="1yfhBGSOxFiwCe9HN2Kn-1" value="" style="endArrow=classic;html=1;rounded=0;entryX=0.047;entryY=0.046;entryDx=0;entryDy=0;entryPerimeter=0;" edge="1" parent="1" target="0yMn6RcTjmXR4WvA116v-119">
          <mxGeometry width="50" height="50" relative="1" as="geometry">
            <mxPoint x="570" y="100" as="sourcePoint" />
            <mxPoint x="650" y="380" as="targetPoint" />
            <Array as="points">
              <mxPoint x="650" y="100" />
              <mxPoint x="650" y="382" />
            </Array>
          </mxGeometry>
        </mxCell>
      </root>
    </mxGraphModel>
  </diagram>
</mxfile>
